<svg width="913" height="403" viewBox="0 0 913 403" fill="none" xmlns="http://www.w3.org/2000/svg">
<path d="M237.024 257.62H285.633V309.988H237.024V397H171.766V309.988H2.84473L0.964844 270.242L169.617 5.98438H237.024V257.62ZM69.4463 257.62H171.766V94.3389L166.932 102.933L69.4463 257.62ZM584.729 232.376C584.729 288.593 574.165 331.025 553.039 359.671C532.092 388.138 500.134 402.371 457.165 402.371C414.912 402.371 383.044 388.496 361.56 360.745C340.254 332.815 329.333 291.548 328.796 236.941V169.266C328.796 113.048 339.27 70.8851 360.217 42.7764C381.343 14.6676 413.48 0.613281 456.628 0.613281C499.418 0.613281 531.286 14.3096 552.233 41.7021C573.36 69.0947 584.191 110.094 584.729 164.7V232.376ZM519.47 159.329C519.47 122.627 514.457 95.7712 504.431 78.7627C494.405 61.5752 478.47 52.9814 456.628 52.9814C435.323 52.9814 419.657 61.1276 409.631 77.4199C399.605 93.5332 394.323 118.777 393.786 153.152V241.775C393.786 278.299 398.889 305.512 409.094 323.416C419.299 341.32 435.323 350.271 457.165 350.271C478.112 350.271 493.599 342.036 503.625 325.564C513.651 308.914 518.933 282.954 519.47 247.684V159.329ZM864.22 257.62H912.828V309.988H864.22V397H798.961V309.988H630.04L628.16 270.242L796.812 5.98438H864.22V257.62ZM696.642 257.62H798.961V94.3389L794.127 102.933L696.642 257.62Z" fill="black" fill-opacity="0.07"/>
</svg>
