<svg width="584" height="53" viewBox="0 0 584 53" fill="none" xmlns="http://www.w3.org/2000/svg">
<path d="M40.958 22.1C40.958 24.8 40.436 27.356 39.392 29.768C38.348 32.144 36.926 34.214 35.126 35.978C33.362 37.706 31.256 39.074 28.808 40.082C26.36 41.09 23.732 41.594 20.924 41.594C18.152 41.594 15.542 41.09 13.094 40.082C10.646 39.074 8.522 37.706 6.722 35.978C4.958 34.214 3.554 32.144 2.51 29.768C1.466 27.356 0.944 24.8 0.944 22.1C0.944 19.4 1.466 16.862 2.51 14.486C3.554 12.074 4.958 10.004 6.722 8.276C8.522 6.512 10.646 5.126 13.094 4.118C15.542 3.11 18.152 2.606 20.924 2.606C23.732 2.606 26.36 3.11 28.808 4.118C31.256 5.126 33.362 6.512 35.126 8.276C36.926 10.004 38.348 12.074 39.392 14.486C40.436 16.862 40.958 19.4 40.958 22.1ZM32.912 22.1C32.912 20.336 32.606 18.716 31.994 17.24C31.382 15.728 30.536 14.432 29.456 13.352C28.412 12.236 27.152 11.372 25.676 10.76C24.2 10.112 22.616 9.788 20.924 9.788C19.232 9.788 17.648 10.112 16.172 10.76C14.732 11.372 13.472 12.236 12.392 13.352C11.348 14.432 10.52 15.728 9.908 17.24C9.296 18.716 8.99 20.336 8.99 22.1C8.99 23.828 9.296 25.448 9.908 26.96C10.52 28.472 11.348 29.786 12.392 30.902C13.472 31.982 14.732 32.846 16.172 33.494C17.648 34.106 19.232 34.412 20.924 34.412C22.616 34.412 24.2 34.106 25.676 33.494C27.152 32.846 28.412 31.982 29.456 30.902C30.536 29.786 31.382 28.472 31.994 26.96C32.606 25.448 32.912 23.828 32.912 22.1ZM45.5477 26.96C45.5477 24.908 45.9257 23 46.6817 21.236C47.4737 19.436 48.5357 17.888 49.8677 16.592C51.2357 15.26 52.8377 14.216 54.6737 13.46C56.5097 12.704 58.4717 12.326 60.5597 12.326C62.6477 12.326 64.6097 12.704 66.4457 13.46C68.2817 14.216 69.8657 15.26 71.1977 16.592C72.5657 17.888 73.6277 19.436 74.3837 21.236C75.1757 23 75.5717 24.908 75.5717 26.96C75.5717 29.012 75.1757 30.938 74.3837 32.738C73.6277 34.502 72.5657 36.032 71.1977 37.328C69.8657 38.624 68.2817 39.65 66.4457 40.406C64.6097 41.162 62.6477 41.54 60.5597 41.54C58.4717 41.54 56.5097 41.162 54.6737 40.406C52.8377 39.65 51.2357 38.624 49.8677 37.328C48.5357 36.032 47.4737 34.502 46.6817 32.738C45.9257 30.938 45.5477 29.012 45.5477 26.96ZM60.5597 35.114C62.7197 35.114 64.5557 34.322 66.0677 32.738C67.5797 31.154 68.3357 29.228 68.3357 26.96C68.3357 24.656 67.5797 22.712 66.0677 21.128C64.5557 19.544 62.7197 18.752 60.5597 18.752C58.3997 18.752 56.5637 19.544 55.0517 21.128C53.5397 22.712 52.7837 24.656 52.7837 26.96C52.7837 29.228 53.5397 31.154 55.0517 32.738C56.5637 34.322 58.3997 35.114 60.5597 35.114ZM81.1191 52.286V12.866H88.4091V15.188C89.5251 14.288 90.7671 13.622 92.1351 13.19C93.5031 12.722 94.9251 12.488 96.4011 12.488C98.3811 12.488 100.235 12.866 101.963 13.622C103.727 14.378 105.257 15.404 106.553 16.7C107.849 17.996 108.857 19.526 109.577 21.29C110.333 23.054 110.711 24.944 110.711 26.96C110.711 28.976 110.333 30.866 109.577 32.63C108.821 34.394 107.795 35.924 106.499 37.22C105.203 38.516 103.655 39.542 101.855 40.298C100.091 41.018 98.2011 41.378 96.1851 41.378C94.8171 41.378 93.4671 41.198 92.1351 40.838C90.8391 40.442 89.6331 39.884 88.5171 39.164V52.286H81.1191ZM95.2131 18.806C93.8811 18.806 92.6391 19.04 91.4871 19.508C90.3351 19.94 89.3451 20.588 88.5171 21.452V32.522C89.3091 33.314 90.2811 33.944 91.4331 34.412C92.6211 34.88 93.8811 35.114 95.2131 35.114C97.5171 35.114 99.4611 34.34 101.045 32.792C102.629 31.208 103.421 29.264 103.421 26.96C103.421 24.656 102.611 22.73 100.991 21.182C99.4071 19.598 97.4811 18.806 95.2131 18.806ZM113.862 37.652L117.534 32.738C119.19 33.818 120.756 34.628 122.232 35.168C123.708 35.672 125.184 35.924 126.66 35.924C128.316 35.924 129.63 35.654 130.602 35.114C131.61 34.574 132.114 33.854 132.114 32.954C132.114 32.234 131.826 31.658 131.25 31.226C130.71 30.794 129.828 30.488 128.604 30.308L123.204 29.498C120.432 29.066 118.308 28.166 116.832 26.798C115.392 25.43 114.672 23.612 114.672 21.344C114.672 18.644 115.734 16.484 117.858 14.864C119.982 13.244 122.826 12.434 126.39 12.434C128.442 12.434 130.44 12.74 132.384 13.352C134.328 13.928 136.182 14.792 137.946 15.944L134.382 20.696C132.834 19.796 131.358 19.13 129.954 18.698C128.55 18.23 127.128 17.996 125.688 17.996C124.356 17.996 123.276 18.248 122.448 18.752C121.656 19.256 121.26 19.922 121.26 20.75C121.26 21.506 121.548 22.1 122.124 22.532C122.736 22.928 123.726 23.216 125.094 23.396L130.494 24.206C133.23 24.602 135.336 25.502 136.812 26.906C138.324 28.31 139.08 30.092 139.08 32.252C139.08 33.584 138.756 34.826 138.108 35.978C137.496 37.094 136.65 38.066 135.57 38.894C134.49 39.722 133.194 40.37 131.682 40.838C130.17 41.306 128.532 41.54 126.768 41.54C124.212 41.54 121.818 41.216 119.586 40.568C117.354 39.884 115.446 38.912 113.862 37.652ZM144.202 34.952H151.87L146.038 49.154H140.476L144.202 34.952ZM169.389 52.286V12.866H176.679V15.188C177.795 14.288 179.037 13.622 180.405 13.19C181.773 12.722 183.195 12.488 184.671 12.488C186.651 12.488 188.505 12.866 190.233 13.622C191.997 14.378 193.527 15.404 194.823 16.7C196.119 17.996 197.127 19.526 197.847 21.29C198.603 23.054 198.981 24.944 198.981 26.96C198.981 28.976 198.603 30.866 197.847 32.63C197.091 34.394 196.065 35.924 194.769 37.22C193.473 38.516 191.925 39.542 190.125 40.298C188.361 41.018 186.471 41.378 184.455 41.378C183.087 41.378 181.737 41.198 180.405 40.838C179.109 40.442 177.903 39.884 176.787 39.164V52.286H169.389ZM183.483 18.806C182.151 18.806 180.909 19.04 179.757 19.508C178.605 19.94 177.615 20.588 176.787 21.452V32.522C177.579 33.314 178.551 33.944 179.703 34.412C180.891 34.88 182.151 35.114 183.483 35.114C185.787 35.114 187.731 34.34 189.315 32.792C190.899 31.208 191.691 29.264 191.691 26.96C191.691 24.656 190.881 22.73 189.261 21.182C187.677 19.598 185.751 18.806 183.483 18.806ZM213.681 41.486C210.657 41.486 208.191 40.694 206.283 39.11C204.375 37.49 203.421 35.402 203.421 32.846C203.421 30.182 204.447 28.094 206.499 26.582C208.551 25.07 211.377 24.314 214.977 24.314C216.129 24.314 217.281 24.404 218.433 24.584C219.585 24.764 220.719 25.034 221.835 25.394V23.396C221.835 21.776 221.331 20.552 220.323 19.724C219.315 18.896 217.839 18.482 215.895 18.482C214.707 18.482 213.411 18.68 212.007 19.076C210.639 19.436 209.073 20.012 207.309 20.804L204.609 15.35C206.805 14.342 208.929 13.586 210.981 13.082C213.069 12.578 215.121 12.326 217.137 12.326C220.917 12.326 223.851 13.244 225.939 15.08C228.063 16.88 229.125 19.436 229.125 22.748V41H221.835V39.056C220.647 39.884 219.387 40.496 218.055 40.892C216.759 41.288 215.301 41.486 213.681 41.486ZM210.495 32.684C210.495 33.764 210.963 34.628 211.899 35.276C212.835 35.888 214.077 36.194 215.625 36.194C216.849 36.194 217.965 36.05 218.973 35.762C220.017 35.438 220.971 34.988 221.835 34.412V30.2C220.935 29.84 219.981 29.588 218.973 29.444C218.001 29.264 216.975 29.174 215.895 29.174C214.203 29.174 212.871 29.498 211.899 30.146C210.963 30.758 210.495 31.604 210.495 32.684ZM248.685 41.162C246.705 41.162 244.833 40.784 243.069 40.028C241.341 39.272 239.829 38.246 238.533 36.95C237.273 35.654 236.265 34.142 235.509 32.414C234.789 30.65 234.429 28.76 234.429 26.744C234.429 24.764 234.807 22.91 235.563 21.182C236.319 19.418 237.345 17.888 238.641 16.592C239.937 15.296 241.467 14.288 243.231 13.568C244.995 12.812 246.885 12.434 248.901 12.434C250.305 12.434 251.637 12.632 252.897 13.028C254.193 13.424 255.399 13.982 256.515 14.702V12.866H263.805V41C263.805 44.708 262.599 47.57 260.187 49.586C257.811 51.602 254.373 52.61 249.873 52.61C247.713 52.61 245.625 52.394 243.609 51.962C241.629 51.53 239.811 50.9 238.155 50.072L240.747 44.294C242.295 45.05 243.807 45.608 245.283 45.968C246.759 46.364 248.235 46.562 249.711 46.562C251.907 46.562 253.563 46.076 254.679 45.104C255.831 44.168 256.407 42.782 256.407 40.946V38.624C255.291 39.452 254.067 40.082 252.735 40.514C251.439 40.946 250.089 41.162 248.685 41.162ZM241.719 26.744C241.719 29.012 242.493 30.938 244.041 32.522C245.625 34.106 247.551 34.898 249.819 34.898C251.151 34.898 252.375 34.682 253.491 34.25C254.607 33.782 255.579 33.152 256.407 32.36V21.29C255.615 20.498 254.643 19.886 253.491 19.454C252.339 18.986 251.133 18.752 249.873 18.752C247.605 18.752 245.679 19.526 244.095 21.074C242.511 22.622 241.719 24.512 241.719 26.744ZM295.851 37.49C294.123 38.894 292.341 39.92 290.505 40.568C288.705 41.216 286.689 41.54 284.457 41.54C282.333 41.54 280.335 41.162 278.463 40.406C276.627 39.65 275.025 38.624 273.657 37.328C272.325 36.032 271.263 34.502 270.471 32.738C269.715 30.938 269.337 29.012 269.337 26.96C269.337 24.944 269.697 23.054 270.417 21.29C271.173 19.49 272.199 17.942 273.495 16.646C274.791 15.314 276.321 14.27 278.085 13.514C279.885 12.758 281.793 12.38 283.809 12.38C285.789 12.38 287.625 12.776 289.317 13.568C291.045 14.324 292.521 15.368 293.745 16.7C295.005 18.032 295.977 19.634 296.661 21.506C297.381 23.342 297.741 25.34 297.741 27.5V29.444H276.789C277.293 31.208 278.265 32.63 279.705 33.71C281.145 34.79 282.837 35.33 284.781 35.33C286.005 35.33 287.157 35.132 288.237 34.736C289.317 34.34 290.235 33.782 290.991 33.062L295.851 37.49ZM283.647 18.482C281.955 18.482 280.497 19.004 279.273 20.048C278.049 21.056 277.203 22.424 276.735 24.152H290.505C290.037 22.496 289.173 21.146 287.913 20.102C286.689 19.022 285.267 18.482 283.647 18.482ZM315.137 41V12.866H322.535V15.08C323.615 14.18 324.803 13.496 326.099 13.028C327.431 12.56 328.871 12.326 330.419 12.326C333.659 12.326 336.323 13.37 338.411 15.458C340.499 17.546 341.543 20.228 341.543 23.504V41H334.145V24.584C334.145 22.82 333.605 21.398 332.525 20.318C331.481 19.238 330.077 18.698 328.313 18.698C327.089 18.698 325.973 18.95 324.965 19.454C323.993 19.922 323.183 20.606 322.535 21.506V41H315.137ZM346.85 26.96C346.85 24.908 347.228 23 347.984 21.236C348.776 19.436 349.838 17.888 351.17 16.592C352.538 15.26 354.14 14.216 355.976 13.46C357.812 12.704 359.774 12.326 361.862 12.326C363.95 12.326 365.912 12.704 367.748 13.46C369.584 14.216 371.168 15.26 372.5 16.592C373.868 17.888 374.93 19.436 375.686 21.236C376.478 23 376.874 24.908 376.874 26.96C376.874 29.012 376.478 30.938 375.686 32.738C374.93 34.502 373.868 36.032 372.5 37.328C371.168 38.624 369.584 39.65 367.748 40.406C365.912 41.162 363.95 41.54 361.862 41.54C359.774 41.54 357.812 41.162 355.976 40.406C354.14 39.65 352.538 38.624 351.17 37.328C349.838 36.032 348.776 34.502 347.984 32.738C347.228 30.938 346.85 29.012 346.85 26.96ZM361.862 35.114C364.022 35.114 365.858 34.322 367.37 32.738C368.882 31.154 369.638 29.228 369.638 26.96C369.638 24.656 368.882 22.712 367.37 21.128C365.858 19.544 364.022 18.752 361.862 18.752C359.702 18.752 357.866 19.544 356.354 21.128C354.842 22.712 354.086 24.656 354.086 26.96C354.086 29.228 354.842 31.154 356.354 32.738C357.866 34.322 359.702 35.114 361.862 35.114ZM384.885 33.062V19.076H379.107V12.866H384.885V5.684L392.283 4.01V12.866H400.275V19.076H392.283V31.55C392.283 32.882 392.571 33.818 393.147 34.358C393.723 34.898 394.731 35.168 396.171 35.168C396.855 35.168 397.503 35.132 398.115 35.06C398.727 34.952 399.393 34.772 400.113 34.52V40.568C399.321 40.82 398.367 41.018 397.251 41.162C396.135 41.342 395.181 41.432 394.389 41.432C391.257 41.432 388.881 40.73 387.261 39.326C385.677 37.886 384.885 35.798 384.885 33.062ZM414.857 12.866H421.121V10.166C421.121 7.034 422.039 4.622 423.875 2.93C425.711 1.238 428.357 0.391998 431.813 0.391998C432.569 0.391998 433.343 0.445999 434.135 0.553999C434.927 0.625998 435.611 0.733998 436.187 0.877998V7.088C435.503 6.944 434.891 6.836 434.351 6.764C433.847 6.692 433.307 6.656 432.731 6.656C431.327 6.656 430.265 6.962 429.545 7.574C428.861 8.186 428.519 9.104 428.519 10.328V12.866H436.187V19.076H428.519V41H421.121V19.076H414.857V12.866ZM438.97 26.96C438.97 24.908 439.348 23 440.104 21.236C440.896 19.436 441.958 17.888 443.29 16.592C444.658 15.26 446.26 14.216 448.096 13.46C449.932 12.704 451.894 12.326 453.982 12.326C456.07 12.326 458.032 12.704 459.868 13.46C461.704 14.216 463.288 15.26 464.62 16.592C465.988 17.888 467.05 19.436 467.806 21.236C468.598 23 468.994 24.908 468.994 26.96C468.994 29.012 468.598 30.938 467.806 32.738C467.05 34.502 465.988 36.032 464.62 37.328C463.288 38.624 461.704 39.65 459.868 40.406C458.032 41.162 456.07 41.54 453.982 41.54C451.894 41.54 449.932 41.162 448.096 40.406C446.26 39.65 444.658 38.624 443.29 37.328C441.958 36.032 440.896 34.502 440.104 32.738C439.348 30.938 438.97 29.012 438.97 26.96ZM453.982 35.114C456.142 35.114 457.978 34.322 459.49 32.738C461.002 31.154 461.758 29.228 461.758 26.96C461.758 24.656 461.002 22.712 459.49 21.128C457.978 19.544 456.142 18.752 453.982 18.752C451.822 18.752 449.986 19.544 448.474 21.128C446.962 22.712 446.206 24.656 446.206 26.96C446.206 29.228 446.962 31.154 448.474 32.738C449.986 34.322 451.822 35.114 453.982 35.114ZM481.723 12.866V29.228C481.723 31.028 482.245 32.468 483.289 33.548C484.369 34.628 485.791 35.168 487.555 35.168C488.815 35.168 489.931 34.934 490.903 34.466C491.911 33.962 492.739 33.26 493.387 32.36V12.866H500.785V41H493.387V38.732C492.307 39.632 491.101 40.334 489.769 40.838C488.437 41.306 486.997 41.54 485.449 41.54C482.209 41.54 479.545 40.496 477.457 38.408C475.369 36.284 474.325 33.584 474.325 30.308V12.866H481.723ZM507.551 41V12.866H514.949V15.08C516.029 14.18 517.217 13.496 518.513 13.028C519.845 12.56 521.285 12.326 522.833 12.326C526.073 12.326 528.737 13.37 530.825 15.458C532.913 17.546 533.957 20.228 533.957 23.504V41H526.559V24.584C526.559 22.82 526.019 21.398 524.939 20.318C523.895 19.238 522.491 18.698 520.727 18.698C519.503 18.698 518.387 18.95 517.379 19.454C516.407 19.922 515.597 20.606 514.949 21.506V41H507.551ZM561.567 41V38.678C560.451 39.578 559.209 40.262 557.841 40.73C556.473 41.162 555.051 41.378 553.575 41.378C551.595 41.378 549.723 41 547.959 40.244C546.231 39.488 544.719 38.462 543.423 37.166C542.127 35.87 541.101 34.34 540.345 32.576C539.625 30.812 539.265 28.922 539.265 26.906C539.265 24.89 539.643 23 540.399 21.236C541.155 19.472 542.181 17.942 543.477 16.646C544.773 15.35 546.303 14.342 548.067 13.622C549.867 12.866 551.775 12.488 553.791 12.488C555.159 12.488 556.491 12.686 557.787 13.082C559.119 13.442 560.343 13.982 561.459 14.702V3.2L568.857 1.58V41H561.567ZM546.555 26.906C546.555 29.174 547.347 31.1 548.931 32.684C550.515 34.268 552.459 35.06 554.763 35.06C556.131 35.06 557.373 34.826 558.489 34.358C559.641 33.89 560.631 33.224 561.459 32.36V21.398C560.667 20.57 559.677 19.922 558.489 19.454C557.337 18.986 556.095 18.752 554.763 18.752C552.423 18.752 550.461 19.544 548.877 21.128C547.329 22.676 546.555 24.602 546.555 26.906ZM579.244 32.738C580.468 32.738 581.512 33.17 582.376 34.034C583.24 34.898 583.672 35.942 583.672 37.166C583.672 38.354 583.24 39.38 582.376 40.244C581.512 41.108 580.468 41.54 579.244 41.54C578.056 41.54 577.03 41.108 576.166 40.244C575.302 39.38 574.87 38.354 574.87 37.166C574.87 35.942 575.302 34.898 576.166 34.034C577.03 33.17 578.056 32.738 579.244 32.738Z" fill="#495045"/>
</svg>
