<svg width="227" height="52" viewBox="0 0 227 52" fill="none" xmlns="http://www.w3.org/2000/svg">
<path d="M187.537 41.0257C185.251 41.0257 183.331 40.6968 181.778 40.0387C180.254 39.3806 179.125 38.5942 178.391 37.6786C177.657 36.7631 177.29 35.9478 177.29 35.2328C177.29 34.9467 177.389 34.7178 177.586 34.5462C177.812 34.3459 178.052 34.2458 178.306 34.2458H183.133C183.303 34.2458 183.458 34.3173 183.599 34.4604C183.938 34.6892 184.192 34.8752 184.362 35.0182C184.982 35.4759 185.519 35.8191 185.971 36.048C186.451 36.2482 187.029 36.3484 187.707 36.3484C188.526 36.3484 189.189 36.1912 189.697 35.8764C190.233 35.5331 190.502 35.0611 190.502 34.4604C190.502 33.974 190.36 33.5878 190.078 33.3018C189.824 33.0157 189.316 32.744 188.554 32.4865C187.791 32.2004 186.634 31.9001 185.081 31.5854C182.738 31.099 180.932 30.3124 179.661 29.2253C178.419 28.1096 177.798 26.6221 177.798 24.7626C177.798 23.5897 178.165 22.4741 178.899 21.4156C179.633 20.3572 180.72 19.499 182.16 18.841C183.627 18.183 185.364 17.8541 187.368 17.8541C189.373 17.8541 191.123 18.1688 192.619 18.7981C194.115 19.4274 195.244 20.1998 196.007 21.1153C196.797 22.0021 197.192 22.8173 197.192 23.5611C197.192 23.8186 197.093 24.0475 196.896 24.2477C196.726 24.4479 196.515 24.5481 196.261 24.5481H191.857C191.631 24.5481 191.419 24.4766 191.221 24.3335C190.855 24.1333 190.53 23.9187 190.248 23.6899C189.768 23.318 189.316 23.0319 188.892 22.8317C188.469 22.6314 187.947 22.5313 187.326 22.5313C186.592 22.5313 185.999 22.7029 185.547 23.0462C185.124 23.3895 184.912 23.8329 184.912 24.3764C184.912 24.8055 185.025 25.1631 185.251 25.4492C185.505 25.7353 186.013 26.0213 186.775 26.3074C187.566 26.5649 188.723 26.8366 190.248 27.1227C192.986 27.609 194.976 28.4672 196.218 29.6973C197.489 30.9274 198.124 32.3721 198.124 34.0313C198.124 36.1483 197.192 37.8503 195.329 39.1376C193.466 40.3964 190.869 41.0257 187.537 41.0257Z" fill="#3366FE"/>
<path d="M52.9022 16.1082C53.0164 14.2545 54.5335 12.8103 56.3665 12.8103H77.6122C79.4452 12.8103 80.9624 14.2545 81.0766 16.1082L82.7253 42.8391C82.8502 44.864 81.2633 46.5759 79.2609 46.5759H54.7178C52.7155 46.5759 51.1285 44.864 51.2535 42.8391L52.9022 16.1082Z" fill="#FE6B18"/>
<path d="M12.1708 41.001C9.64281 41.001 7.47406 40.6236 5.66451 39.8685C3.855 39.1133 2.48456 38.1292 1.55318 36.9158C0.648425 35.6752 0.169432 34.3271 0.116211 32.8709C0.116211 32.6552 0.196043 32.4664 0.355706 32.3046C0.541981 32.1159 0.754865 32.0215 0.99436 32.0215H6.02376C6.34308 32.0215 6.59591 32.0889 6.78216 32.2238C6.99507 32.3316 7.20794 32.5069 7.42081 32.7496C7.76676 33.4507 8.32558 34.0305 9.09728 34.4889C9.86901 34.9473 10.8935 35.1765 12.1708 35.1765C13.6876 35.1765 14.8452 34.9338 15.6435 34.4484C16.4418 33.963 16.841 33.3024 16.841 32.4664C16.841 31.8732 16.6281 31.3878 16.2023 31.0103C15.8032 30.6328 15.1645 30.2957 14.2863 29.9991C13.4082 29.7025 12.1043 29.3654 10.3746 28.9879C7.18132 28.3137 4.78636 27.3295 3.18973 26.0352C1.61971 24.7138 0.834696 22.8398 0.834696 20.4129C0.834696 18.7679 1.28708 17.2983 2.19184 16.004C3.0966 14.7096 4.3872 13.6984 6.06367 12.9704C7.74014 12.2423 9.69602 11.8783 11.9313 11.8783C14.2464 11.8783 16.2556 12.2827 17.9586 13.0917C19.6617 13.9007 20.9523 14.9254 21.8305 16.1658C22.7352 17.3792 23.2142 18.5792 23.2674 19.7657C23.2674 20.0084 23.1876 20.2106 23.0279 20.3724C22.8683 20.5342 22.6687 20.6151 22.4292 20.6151H17.1603C16.841 20.6151 16.5749 20.5612 16.362 20.4533C16.1757 20.3454 16.0027 20.1702 15.8431 19.9275C15.6834 19.3073 15.2443 18.7815 14.5258 18.35C13.834 17.9185 12.9691 17.7028 11.9313 17.7028C10.7338 17.7028 9.81577 17.9185 9.17711 18.35C8.53846 18.7815 8.21913 19.4151 8.21913 20.2511C8.21913 20.8173 8.39212 21.2892 8.73804 21.6667C9.11061 22.0443 9.69602 22.3948 10.4943 22.7184C11.3193 23.015 12.4901 23.3251 14.0069 23.6487C16.4817 24.1071 18.4509 24.6869 19.9145 25.388C21.4047 26.0621 22.4957 26.952 23.1876 28.0576C23.8795 29.1362 24.2254 30.4979 24.2254 32.1429C24.2254 33.9496 23.7065 35.527 22.6687 36.8753C21.6575 38.1967 20.2338 39.2213 18.3977 39.9494C16.5882 40.6504 14.5125 41.001 12.1708 41.001Z" fill="#3366FE"/>
<path d="M28.7794 40.5965C28.5133 40.5965 28.2738 40.5023 28.0609 40.3134C27.8746 40.0978 27.7815 39.8551 27.7815 39.5853V12.8895C27.7815 12.5929 27.8746 12.3502 28.0609 12.1614C28.2738 11.9726 28.5133 11.8783 28.7794 11.8783H33.8886C34.1813 11.8783 34.4208 11.9726 34.6071 12.1614C34.7935 12.3502 34.8866 12.5929 34.8866 12.8895V21.9094C36.4832 20.0758 38.5855 19.159 41.1933 19.159C42.7368 19.159 44.1071 19.5095 45.3046 20.2106C46.5288 20.9117 47.4868 21.9499 48.1785 23.3251C48.8703 24.7004 49.2164 26.3587 49.2164 28.3003V39.5853C49.2164 39.8551 49.1233 40.0978 48.937 40.3134C48.7506 40.5023 48.5111 40.5965 48.2185 40.5965H43.0693C42.8031 40.5965 42.5636 40.5023 42.3508 40.3134C42.1644 40.0978 42.0714 39.8551 42.0714 39.5853V28.543C42.0714 27.2756 41.7653 26.3048 41.1534 25.6307C40.5678 24.9296 39.7032 24.579 38.5588 24.579C37.4144 24.579 36.5099 24.9296 35.8445 25.6307C35.2059 26.3048 34.8866 27.2756 34.8866 28.543V39.5853C34.8866 39.8818 34.7935 40.1245 34.6071 40.3134C34.4208 40.5023 34.1813 40.5965 33.8886 40.5965H28.7794Z" fill="#3366FE"/>
<path d="M67.0328 41.001C63.733 41.001 61.1915 40.2054 59.4089 38.6146C57.6258 37.0237 56.6547 34.7855 56.495 31.9002C56.4683 31.5496 56.4551 30.9429 56.4551 30.08C56.4551 29.2171 56.4683 28.6104 56.495 28.2598C56.6547 25.4015 57.6526 23.1768 59.4887 21.5859C61.3248 19.9679 63.8395 19.159 67.0328 19.159C70.2528 19.159 72.7807 19.9679 74.6168 21.5859C76.4529 23.1768 77.4508 25.4015 77.6105 28.2598C77.6372 28.6104 77.6504 29.2171 77.6504 30.08C77.6504 30.9429 77.6372 31.5496 77.6105 31.9002C77.4508 34.7855 76.4797 37.0237 74.6966 38.6146C72.9136 40.2054 70.359 41.001 67.0328 41.001ZM67.0328 36.0663C68.2035 36.0663 69.0685 35.7157 69.6273 35.0147C70.1861 34.2866 70.5055 33.181 70.5853 31.6979C70.6117 31.4283 70.6252 30.889 70.6252 30.08C70.6252 29.271 70.6117 28.7317 70.5853 28.4621C70.5055 27.0059 70.173 25.9138 69.5874 25.1858C69.0286 24.4577 68.1768 24.0937 67.0328 24.0937C64.8239 24.0937 63.6531 25.5498 63.5202 28.4621L63.4803 30.08L63.5202 31.6979C63.5733 33.181 63.8794 34.2866 64.4383 35.0147C65.0235 35.7157 65.8884 36.0663 67.0328 36.0663Z" fill="white"/>
<path d="M86.0841 48.2817C85.8179 48.2817 85.5784 48.1875 85.3656 47.9986C85.1792 47.8097 85.0862 47.567 85.0862 47.2705V20.5747C85.0862 20.278 85.1792 20.0354 85.3656 19.8466C85.5784 19.6578 85.8179 19.5634 86.0841 19.5634H90.5946C90.8872 19.5634 91.1267 19.6578 91.3131 19.8466C91.4991 20.0354 91.5925 20.278 91.5925 20.5747V22.0308C93.0295 20.1163 95.0915 19.159 97.7795 19.159C100.387 19.159 102.423 19.9814 103.887 21.6263C105.35 23.2712 106.148 25.5902 106.282 28.5834C106.308 28.934 106.321 29.4328 106.321 30.08C106.321 30.7272 106.308 31.226 106.282 31.5766C106.175 34.4889 105.377 36.7944 103.887 38.4932C102.396 40.165 100.36 41.001 97.7795 41.001C95.1714 41.001 93.229 40.0978 91.9517 38.291V47.2705C91.9517 47.567 91.8584 47.8097 91.6723 47.9986C91.4859 48.1875 91.2464 48.2817 90.9538 48.2817H86.0841ZM95.624 35.581C96.8746 35.581 97.7659 35.2035 98.2984 34.4484C98.8572 33.6934 99.1765 32.6552 99.2563 31.3339C99.3094 30.7946 99.3362 30.3766 99.3362 30.08C99.3362 29.7834 99.3094 29.3654 99.2563 28.8261C99.1765 27.5048 98.8572 26.4666 98.2984 25.7116C97.7659 24.9565 96.8746 24.579 95.624 24.579C94.3998 24.579 93.4949 24.97 92.9097 25.752C92.3509 26.5071 92.0316 27.4913 91.9517 28.7048L91.9118 30.2013L91.9517 31.7384C92.0048 32.844 92.3373 33.7608 92.9496 34.4889C93.5615 35.2169 94.4529 35.581 95.624 35.581Z" fill="#3366FE"/>
<path d="M111.265 48.2817C110.999 48.2817 110.76 48.1875 110.546 47.9986C110.36 47.8097 110.267 47.567 110.267 47.2705V20.5747C110.267 20.278 110.36 20.0354 110.546 19.8466C110.76 19.6578 110.999 19.5634 111.265 19.5634H115.775C116.068 19.5634 116.308 19.6578 116.494 19.8466C116.68 20.0354 116.773 20.278 116.773 20.5747V22.0308C118.21 20.1163 120.273 19.159 122.96 19.159C125.568 19.159 127.604 19.9814 129.067 21.6263C130.531 23.2712 131.33 25.5902 131.462 28.5834C131.489 28.934 131.502 29.4328 131.502 30.08C131.502 30.7272 131.489 31.226 131.462 31.5766C131.356 34.4889 130.558 36.7944 129.067 38.4932C127.577 40.165 125.542 41.001 122.96 41.001C120.353 41.001 118.41 40.0978 117.133 38.291V47.2705C117.133 47.567 117.04 47.8097 116.853 47.9986C116.667 48.1875 116.428 48.2817 116.135 48.2817H111.265ZM120.805 35.581C122.056 35.581 122.947 35.2035 123.479 34.4484C124.038 33.6934 124.357 32.6552 124.437 31.3339C124.491 30.7946 124.517 30.3766 124.517 30.08C124.517 29.7834 124.491 29.3654 124.437 28.8261C124.357 27.5048 124.038 26.4666 123.479 25.7116C122.947 24.9565 122.056 24.579 120.805 24.579C119.581 24.579 118.676 24.97 118.091 25.752C117.532 26.5071 117.212 27.4913 117.133 28.7048L117.093 30.2013L117.133 31.7384C117.186 32.844 117.519 33.7608 118.131 34.4889C118.743 35.2169 119.634 35.581 120.805 35.581Z" fill="#3366FE"/>
<path d="M145.028 41.001C141.835 41.001 139.32 40.1245 137.484 38.3719C135.648 36.6193 134.69 34.0709 134.61 30.7272V29.3115C134.717 26.1295 135.688 23.6487 137.524 21.869C139.387 20.0623 141.875 19.159 144.988 19.159C147.25 19.159 149.153 19.6309 150.696 20.5747C152.267 21.4915 153.437 22.7589 154.209 24.3768C155.007 25.9947 155.407 27.8553 155.407 29.9587V30.9294C155.407 31.1991 155.313 31.4418 155.127 31.6575C154.941 31.8463 154.702 31.9406 154.409 31.9406H141.636V32.2238C141.689 33.4911 141.995 34.5158 142.554 35.2978C143.112 36.0797 143.924 36.4708 144.988 36.4708C145.654 36.4708 146.199 36.3361 146.625 36.0663C147.051 35.7698 147.437 35.4192 147.783 35.0147C148.022 34.7181 148.208 34.5428 148.341 34.4889C148.501 34.408 148.741 34.3675 149.06 34.3675H154.009C154.249 34.3675 154.449 34.4484 154.608 34.6102C154.795 34.745 154.888 34.9338 154.888 35.1765C154.888 35.8775 154.488 36.6864 153.69 37.6034C152.919 38.5203 151.788 39.3156 150.297 39.9898C148.807 40.6641 147.051 41.001 145.028 41.001ZM148.381 27.9362V27.8553C148.381 26.534 148.076 25.4959 147.463 24.7408C146.878 23.9588 146.053 23.5678 144.988 23.5678C143.951 23.5678 143.126 23.9588 142.514 24.7408C141.928 25.4959 141.636 26.534 141.636 27.8553V27.9362H148.381Z" fill="#3366FE"/>
<path d="M160.146 40.5966C159.854 40.5966 159.614 40.5023 159.428 40.3134C159.242 40.1245 159.148 39.8818 159.148 39.5853V20.5747C159.148 20.278 159.242 20.0354 159.428 19.8466C159.614 19.6578 159.854 19.5634 160.146 19.5634H164.737C165.03 19.5634 165.269 19.6713 165.455 19.887C165.668 20.0758 165.774 20.305 165.774 20.5747V22.1926C167.238 20.4398 169.207 19.5634 171.682 19.5634H173.438C173.731 19.5634 173.971 19.6578 174.157 19.8466C174.343 20.0354 174.436 20.278 174.436 20.5747V24.7408C174.436 25.0105 174.343 25.2532 174.157 25.4689C173.971 25.6577 173.731 25.752 173.438 25.752H169.567C168.476 25.752 167.624 26.0621 167.012 26.6823C166.427 27.2756 166.134 28.125 166.134 29.2306V39.5853C166.134 39.8818 166.028 40.1245 165.814 40.3134C165.628 40.5023 165.389 40.5966 165.096 40.5966H160.146Z" fill="#3366FE"/>
<rect x="60.2849" y="7.04834" width="14.1366" height="10.3743" rx="3.5" stroke="#FE6B18"/>
</svg>
